<svg width="471" height="464" viewBox="0 0 471 464" fill="none" xmlns="http://www.w3.org/2000/svg">
<path d="M25.804 219.216C26.225 219.637 26.894 220.211 27.783 220.909C50.924 159.623 105.823 103.969 105.823 103.969C80.004 134.913 66.665 201.143 60.985 238.006C86.727 246.631 122.214 248.744 153.359 217.313C207.158 163.017 145.164 93.067 239.67 30.462C239.67 30.462 118.189 -2.96901 40.675 75.253C-36.849 153.483 19.034 212.503 25.804 219.216Z" fill="#77B80E"/>
<path d="M412.684 280.387C412.684 280.387 496.891 186.665 461.568 82.358C426.253 -21.95 348.472 1.65995 339.444 4.70995C338.88 4.90095 338.057 5.24595 337.044 5.72395C381.52 53.823 406.765 127.808 406.765 127.808C390.623 90.877 337.351 49.338 306.913 27.775C287.692 46.948 269.934 77.749 284.135 119.661C308.653 192.059 398.933 167.865 412.684 280.387Z" fill="#EEA210"/>
<path d="M369.681 351.675C362.146 325.599 343.709 295.199 300.143 287.445C224.887 274.048 202.587 364.815 97.361 322.654C97.361 322.654 138.91 441.601 247.33 460.909C355.749 480.216 372.541 400.683 374.215 391.304C374.319 390.71 374.415 389.84 374.483 388.712C310.912 404.509 233.915 390.979 233.915 390.979C274.046 394.63 336.116 367.96 369.681 351.675Z" fill="#F20909"/>
</svg>
